<?xml version="1.0" encoding="UTF-8"?>
<svg xmlns="http://www.w3.org/2000/svg" xmlns:xlink="http://www.w3.org/1999/xlink" width="375pt" height="374.999991pt" viewBox="0 0 375 374.999991" version="1.2">
<g id="surface1">
<rect x="0" y="0" width="375" height="374.999991" style="fill:rgb(100%,100%,100%);fill-opacity:1;stroke:none;"/>
<rect x="0" y="0" width="375" height="374.999991" style="fill:rgb(100%,100%,100%);fill-opacity:1;stroke:none;"/>
<rect x="0" y="0" width="375" height="374.999991" style="fill:rgb(100%,100%,100%);fill-opacity:1;stroke:none;"/>
<path style=" stroke:none;fill-rule:nonzero;fill:rgb(0%,0%,0%);fill-opacity:1;" d="M 350.882812 110.476562 L 8.558594 110.476562 C 4.261719 110.476562 0.777344 106.992188 0.777344 102.695312 C 0.777344 98.402344 4.261719 94.917969 8.558594 94.917969 L 350.882812 94.917969 C 355.175781 94.917969 358.660156 98.402344 358.660156 102.695312 C 358.660156 106.992188 355.175781 110.476562 350.882812 110.476562 Z M 350.882812 110.476562 "/>
<path style=" stroke:none;fill-rule:nonzero;fill:rgb(0%,0%,0%);fill-opacity:1;" d="M 314.097656 188.324219 C 313.414062 188.324219 312.726562 188.246094 312.042969 188.042969 C 307.890625 186.910156 305.445312 182.628906 306.582031 178.492188 L 327.804688 100.644531 C 328.925781 96.488281 333.253906 94.0625 337.359375 95.179688 C 341.515625 96.316406 343.957031 100.597656 342.820312 104.734375 L 321.597656 182.582031 C 320.664062 186.054688 317.519531 188.324219 314.097656 188.324219 Z M 314.097656 188.324219 "/>
<path style=" stroke:none;fill-rule:nonzero;fill:rgb(0%,0%,0%);fill-opacity:1;" d="M 179.71875 281.640625 L 94.574219 281.640625 C 77.070312 281.640625 61.648438 269.859375 57.042969 252.976562 L 16.617188 104.734375 C 15.480469 100.597656 17.925781 96.316406 22.078125 95.195312 C 26.203125 94.078125 30.496094 96.503906 31.617188 100.660156 L 72.042969 248.886719 C 74.8125 259 84.070312 266.078125 94.574219 266.078125 L 179.71875 266.078125 C 184.015625 266.078125 187.5 269.5625 187.5 273.859375 C 187.5 278.152344 184.015625 281.640625 179.71875 281.640625 Z M 179.71875 281.640625 "/>
<path style=" stroke:none;fill-rule:nonzero;fill:rgb(0%,0%,0%);fill-opacity:1;" d="M 101.917969 110.476562 C 100.425781 110.476562 98.929688 110.058594 97.609375 109.171875 C 94.03125 106.789062 93.066406 101.964844 95.445312 98.386719 L 157.6875 5.027344 C 160.050781 1.460938 164.875 0.480469 168.46875 2.863281 C 172.046875 5.242188 173.011719 10.066406 170.632812 13.644531 L 108.390625 107.007812 C 106.898438 109.261719 104.425781 110.476562 101.917969 110.476562 Z M 101.917969 110.476562 "/>
<path style=" stroke:none;fill-rule:nonzero;fill:rgb(0%,0%,0%);fill-opacity:1;" d="M 257.519531 110.476562 C 255 110.476562 252.542969 109.261719 251.03125 107.007812 L 188.792969 13.644531 C 186.410156 10.066406 187.375 5.242188 190.953125 2.863281 C 194.53125 0.480469 199.355469 1.445312 201.738281 5.027344 L 263.976562 98.386719 C 266.359375 101.964844 265.394531 106.789062 261.816406 109.171875 C 260.507812 110.058594 259.015625 110.476562 257.519531 110.476562 Z M 257.519531 110.476562 "/>
<path style=" stroke:none;fill-rule:nonzero;fill:rgb(0%,0%,0%);fill-opacity:1;" d="M 288.640625 375 C 241.445312 375 203.058594 336.613281 203.058594 289.417969 C 203.058594 242.226562 241.445312 203.839844 288.640625 203.839844 C 335.835938 203.839844 374.222656 242.226562 374.222656 289.417969 C 374.222656 336.613281 335.835938 375 288.640625 375 Z M 288.640625 219.398438 C 250.035156 219.398438 218.621094 250.8125 218.621094 289.417969 C 218.621094 328.023438 250.035156 359.441406 288.640625 359.441406 C 327.246094 359.441406 358.660156 328.023438 358.660156 289.417969 C 358.660156 250.8125 327.246094 219.398438 288.640625 219.398438 Z M 288.640625 219.398438 "/>
<path style=" stroke:none;fill-rule:nonzero;fill:rgb(0%,0%,0%);fill-opacity:1;" d="M 319.761719 328.320312 C 317.769531 328.320312 315.777344 327.558594 314.253906 326.046875 L 252.011719 263.808594 C 248.976562 260.773438 248.976562 255.839844 252.011719 252.804688 C 255.046875 249.773438 259.980469 249.773438 263.011719 252.804688 L 325.253906 315.046875 C 328.289062 318.082031 328.289062 323.011719 325.253906 326.046875 C 323.746094 327.558594 321.753906 328.320312 319.761719 328.320312 Z M 319.761719 328.320312 "/>
<path style=" stroke:none;fill-rule:nonzero;fill:rgb(0%,0%,0%);fill-opacity:1;" d="M 257.519531 328.320312 C 255.527344 328.320312 253.539062 327.558594 252.011719 326.046875 C 248.976562 323.011719 248.976562 318.082031 252.011719 315.046875 L 314.253906 252.804688 C 317.289062 249.773438 322.21875 249.773438 325.253906 252.804688 C 328.289062 255.839844 328.289062 260.773438 325.253906 263.808594 L 263.011719 326.046875 C 261.503906 327.558594 259.511719 328.320312 257.519531 328.320312 Z M 257.519531 328.320312 "/>
</g>
</svg>
